<svg width="169" height="62" viewBox="0 0 169 62" fill="none" xmlns="http://www.w3.org/2000/svg">
<path d="M52.9482 39.8178C51.1711 39.8178 49.5806 39.4396 48.1679 38.6747C46.764 37.9098 45.6533 36.8613 44.8447 35.5206C44.0362 34.1799 43.6274 32.6587 43.6274 30.9656C43.6274 29.2725 44.0362 27.7255 44.8447 26.4105C45.6533 25.0956 46.7551 24.0557 48.1501 23.2908C49.5451 22.5259 51.1445 22.1477 52.9482 22.1477C54.7519 22.1477 56.3158 22.5259 57.7285 23.2736C59.1324 24.0213 60.2342 25.0612 61.0339 26.3933C61.8336 27.7255 62.2334 29.2467 62.2334 30.9656C62.2334 32.6844 61.8336 34.2056 61.0339 35.5378C60.2342 36.8699 59.1324 37.9098 57.7285 38.6747C56.3246 39.4396 54.7253 39.8178 52.9482 39.8178V39.8178ZM52.9482 37.0762C54.0944 37.0762 55.1251 36.8269 56.0403 36.3285C56.9555 35.83 57.6663 35.1167 58.1817 34.1885C58.697 33.2603 58.9547 32.1946 58.9547 30.9742C58.9547 29.7537 58.697 28.6623 58.1817 27.7598C57.6663 26.8574 56.9466 26.1527 56.0403 25.6542C55.1251 25.1557 54.0944 24.9065 52.9482 24.9065C51.802 24.9065 50.7802 25.1557 49.8739 25.6542C48.9764 26.1527 48.2567 26.8574 47.7147 27.7598C47.1727 28.6623 46.9061 29.7366 46.9061 30.9742C46.9061 32.2117 47.1727 33.2689 47.7147 34.1885C48.2567 35.1167 48.9764 35.83 49.8739 36.3285C50.7713 36.8269 51.802 37.0762 52.9482 37.0762Z" fill="white"/>
<path d="M67.8045 39.6201V22.311H70.9144V27.0121L70.6123 25.8347C71.1099 24.6401 71.9362 23.7205 73.1091 23.0931C74.282 22.4657 75.7214 22.1477 77.4274 22.1477V25.1815C77.2941 25.1643 77.1608 25.1472 77.0364 25.1472H76.681C74.9484 25.1472 73.5711 25.6456 72.5582 26.6512C71.5453 27.6567 71.0388 29.1006 71.0388 30.9913V39.6115H67.7957L67.8045 39.6201Z" fill="white"/>
<path d="M89.7514 38.9067C88.0187 38.9067 86.4727 38.5544 85.1043 37.8496C83.736 37.1449 82.6608 36.1565 81.8611 34.8932C81.0615 33.6298 80.6616 32.1687 80.6616 30.5186C80.6616 28.8685 81.0615 27.3816 81.8611 26.1269C82.6608 24.8721 83.7448 23.9009 85.1043 23.2048C86.4638 22.5086 88.0098 22.1562 89.7514 22.1562C91.2796 22.1562 92.6746 22.4571 93.9364 23.0501C95.1981 23.6517 96.2021 24.5713 96.9574 25.8089C97.7126 27.0465 98.0858 28.6192 98.0858 30.51C98.0858 32.4008 97.7126 33.9392 96.9574 35.1768C96.2021 36.4144 95.1981 37.3511 93.9364 37.9699C92.6746 38.5887 91.2796 38.8981 89.7514 38.8981V38.9067ZM90.1601 46.1604C88.5163 46.1604 86.9258 45.937 85.3797 45.49C83.8337 45.0431 82.5809 44.4072 81.6124 43.5821L83.1673 41.1671C84.0025 41.8632 85.0243 42.4133 86.2416 42.8172C87.4589 43.2211 88.7295 43.4188 90.0535 43.4188C92.1682 43.4188 93.7231 42.9375 94.7094 41.9835C95.6957 41.0296 96.1932 39.5685 96.1932 37.609V33.9478L96.5309 30.5186L96.3621 27.0551V22.3195H99.4364V37.2738C99.4364 40.3248 98.6456 42.568 97.0729 44.0032C95.5002 45.4385 93.19 46.1604 90.1512 46.1604H90.1601ZM90.1245 36.1651C91.3152 36.1651 92.3725 35.9245 93.2966 35.4432C94.2207 34.9619 94.9493 34.3001 95.4735 33.4493C96.0067 32.5984 96.2643 31.6187 96.2643 30.51C96.2643 29.4013 95.9978 28.4216 95.4735 27.5707C94.9493 26.7199 94.2207 26.0667 93.2966 25.594C92.3725 25.1299 91.3152 24.8893 90.1245 24.8893C88.9339 24.8893 87.8677 25.1213 86.9347 25.594C86.0017 26.0581 85.2642 26.7199 84.74 27.5707C84.2158 28.4216 83.9492 29.4013 83.9492 30.51C83.9492 31.6187 84.2158 32.5984 84.74 33.4493C85.2731 34.3001 86.0017 34.9619 86.9347 35.4432C87.8677 35.9245 88.9339 36.1651 90.1245 36.1651Z" fill="white"/>
<path d="M5.40257 12.0322C5.62471 12.4619 6.07786 12.7369 6.57544 12.7369C7.07302 12.7369 7.52618 12.4619 7.74831 12.0322L13.0262 1.8392C13.2306 1.44386 13.2039 0.979762 12.964 0.601608C12.7241 0.223455 12.2976 0 11.8445 0H1.3153C0.862148 0 0.43565 0.232049 0.195745 0.601608C-0.0441597 0.979762 -0.0619304 1.44386 0.133548 1.8392L5.40257 12.0322ZM9.72086 2.54394L6.58433 8.62018L3.44779 2.54394H9.72086V2.54394ZM6.58433 37.3684C8.33475 37.3684 10.0052 36.6981 11.2403 35.5035C12.4753 34.3088 13.1684 32.6845 13.1684 31C13.1684 29.3155 12.4753 27.6912 11.2403 26.4965C10.0052 25.3019 8.32586 24.6315 6.58433 24.6315C4.84279 24.6315 3.16346 25.3019 1.92839 26.4965C0.693326 27.6912 0.000267351 29.3155 0.000267351 31C0.000267351 32.6845 0.693326 34.3088 1.92839 35.5035C3.16346 36.6981 4.83391 37.3684 6.58433 37.3684V37.3684ZM6.58433 27.1755C7.6328 27.1755 8.63685 27.5794 9.38322 28.2928C10.1207 29.0061 10.5383 29.9859 10.5383 31C10.5383 32.0141 10.1207 32.9853 9.38322 33.7072C8.64573 34.4206 7.6328 34.8245 6.58433 34.8245C5.53585 34.8245 4.53181 34.4206 3.78543 33.7072C3.04795 32.9939 2.63034 32.0141 2.63034 31C2.63034 29.9859 3.04795 29.0147 3.78543 28.2928C4.52292 27.5794 5.53585 27.1755 6.58433 27.1755ZM1.3153 62H11.8534C12.582 62 13.1684 61.4328 13.1684 60.728V50.5351C13.1684 49.8303 12.582 49.2631 11.8534 49.2631H1.3153C0.586702 49.2631 0.000267351 49.8303 0.000267351 50.5351V60.728C0.000267351 61.4328 0.586702 62 1.3153 62V62ZM2.63034 51.807H10.5383V59.4561H2.63034V51.807V51.807ZM23.7064 54.3596V32.272H16.2427C15.5141 32.272 14.9277 31.7047 14.9277 31C14.9277 30.2953 15.5141 29.728 16.2427 29.728H23.7064V7.64042H16.2427C15.5141 7.64042 14.9277 7.07319 14.9277 6.36845C14.9277 5.66371 15.5141 5.09648 16.2427 5.09648H25.0215C25.7501 5.09648 26.3365 5.66371 26.3365 6.36845V29.728H33.8002C34.5288 29.728 35.1152 30.2953 35.1152 31C35.1152 31.7047 34.5288 32.272 33.8002 32.272H26.3365V55.6316C26.3365 56.3363 25.7501 56.9035 25.0215 56.9035H16.2427C15.5141 56.9035 14.9277 56.3363 14.9277 55.6316C14.9277 54.9268 15.5141 54.3596 16.2427 54.3596H23.7064V54.3596Z" fill="white"/>
</svg>
